<svg aria-hidden="true" style="position: absolute; width: 0; height: 0; overflow: hidden;" version="1.1" xmlns="http://www.w3.org/2000/svg" xmlns:xlink="http://www.w3.org/1999/xlink">
<defs>
<symbol id="hrestik" viewBox="0 0 32 32">
<path stroke-linejoin="miter" stroke-linecap="butt" stroke-miterlimit="4" stroke-width="2" d="M0.707 0.707l15 15M30.707 30.707l-15-15M15.707 15.707l-15 15"></path>
</symbol>
<symbol id="strilka__right" viewBox="0 0 16 32">
<path stroke-linejoin="miter" stroke-linecap="butt" stroke-miterlimit="4" stroke-width="0.3168" d="M0.112 0.112l15.842 15.842-15.842 15.842"></path>
</symbol>
<symbol id="strilka__left" viewBox="0 0 16 32">
<path stroke-linejoin="miter" stroke-linecap="butt" stroke-miterlimit="4" stroke-width="0.3168" d="M16.066 0.112l-15.842 15.842 15.842 15.842"></path>
</symbol>
<symbol id="pointer" viewBox="0 0 32 32">
<path stroke-linejoin="round" stroke-linecap="butt" stroke-miterlimit="4" stroke-width="7.2727" d="M15.979 28.321l-12.342-24.684 24.684 12.342-10.229 2.113-2.113 10.229z"></path>
</symbol>
<symbol id="paper" viewBox="0 0 32 32">
<path d="M0 0h32v32h-32v-32z"></path>
</symbol>
<symbol id="scissors" viewBox="0 0 33 32">
<path d="M0 0h32v32h-32v-32z"></path>
</symbol>
<symbol id="stone" viewBox="0 0 32 32">
<path d="M0 0h32v32h-32v-32z"></path>
</symbol>
<symbol id="search" viewBox="0 0 32 32">
<path stroke-linejoin="miter" stroke-linecap="butt" stroke-miterlimit="4" stroke-width="4" d="M24.087 13.043c0 6.099-4.944 11.043-11.043 11.043s-11.043-4.944-11.043-11.043c0-6.099 4.944-11.043 11.043-11.043s11.043 4.944 11.043 11.043z"></path>
<path d="M28.586 31.414c0.781 0.781 2.047 0.781 2.828 0s0.781-2.047 0-2.828l-2.828 2.828zM22.936 20.108l-1.414-1.414-2.829 2.828 1.414 1.414 2.828-2.828zM31.414 28.586l-8.478-8.478-2.828 2.828 8.478 8.478 2.828-2.828z"></path>
</symbol>
<symbol id="moon" viewBox="0 0 34 32">
<path d="M32.071 15.644c0 8.64-7.179 15.644-16.036 15.644s-16.036-7.004-16.036-15.644c0-8.64 7.179-15.644 16.036-15.644s16.036 7.004 16.036 15.644z"></path>
</symbol>
<symbol id="sun" viewBox="0 0 34 32">
<path d="M32.071 15.644c0 8.64-7.179 15.644-16.036 15.644s-16.036-7.004-16.036-15.644c0-8.64 7.179-15.644 16.036-15.644s16.036 7.004 16.036 15.644z"></path>
</symbol>
<symbol id="logo" viewBox="0 0 34 32">
<path stroke-linejoin="round" stroke-linecap="round" stroke-miterlimit="4" stroke-width="1.641" d="M9.026 9.613l-8.205 8.205 8.205 8.205"></path>
<path stroke-linejoin="round" stroke-linecap="round" stroke-miterlimit="4" stroke-width="1.641" d="M25.436 9.613l8.205 8.205-8.205 8.205"></path>
<path d="M20.131 3.553l-7.046 26.294c-0.096 0.357-0.463 0.569-0.82 0.474s-0.569-0.463-0.474-0.82l7.046-26.294c0.096-0.357 0.463-0.569 0.82-0.474s0.569 0.463 0.474 0.82z"></path>
<path d="M18.837 3.206c0.096-0.357 0.463-0.569 0.82-0.474s0.569 0.463 0.474 0.82l-0.858 3.203-1.294-0.347 0.858-3.203z"></path>
<path stroke-linejoin="miter" stroke-linecap="round" stroke-miterlimit="4" stroke-width="0.8205" d="M21.083 5.177l2.588 0.693"></path>
<path stroke-linejoin="miter" stroke-linecap="round" stroke-miterlimit="4" stroke-width="0.8205" d="M14.613 3.443l2.588 0.693"></path>
<path stroke-linejoin="miter" stroke-linecap="round" stroke-miterlimit="4" stroke-width="0.8205" d="M16.12 0.409l1.344 2.305"></path>
<path stroke-linejoin="miter" stroke-linecap="round" stroke-miterlimit="4" stroke-width="0.8205" d="M14.43 6.715l2.316-1.324"></path>
<path stroke-linejoin="miter" stroke-linecap="round" stroke-miterlimit="4" stroke-width="0.8205" d="M20.739 6.46l1.344 2.305"></path>
<path stroke-linejoin="miter" stroke-linecap="round" stroke-miterlimit="4" stroke-width="0.8205" d="M21.456 3.784l2.316-1.324"></path>
</symbol>
</defs>
</svg>
